<?xml version="1.0" encoding="utf-8"?>
<!-- Generator: Adobe Illustrator 21.0.0, SVG Export Plug-In . SVG Version: 6.00 Build 0)  -->
<svg version="1.1" id="Layer_1" xmlns="http://www.w3.org/2000/svg" xmlns:xlink="http://www.w3.org/1999/xlink" x="0px" y="0px"
	 viewBox="0 0 150 52" style="enable-background:new 0 0 150 52;" xml:space="preserve">
<g>
	<g>
		<path d="M77.3,43.7h4.4V7.2h-4.4V1.1h11.5v42.6H93v6H77.3V43.7z"/>
		<path d="M96.9,43.7h4.4v-17h-4.4v-6.1h11.5v23.1h4.2v6H96.9V43.7z M99.3,11.4c0-2.7,2.3-4.8,4.8-4.8c2.5,0,4.7,2.1,4.7,4.8
			c0,2.7-2.3,4.8-4.8,4.8C101.5,16.2,99.3,14.1,99.3,11.4z"/>
		<path d="M125.3,46.9l-1.6,2.9h-4.8V7.2h-4.3V1.1H126v22.7c2.1-2.1,4.8-3.7,8.4-3.7c7.5,0,13.2,6.2,13.2,14.9
			c0,8.4-6,15.2-13.7,15.2C130.3,50.2,127.7,48.9,125.3,46.9z M140.3,35.1c0-5.6-3.4-8.8-7.5-8.8c-2.7,0-4.8,1.2-6.8,2.9v12.5
			c1.9,1.3,4.1,2.3,6.8,2.3C136.7,44,140.3,40.9,140.3,35.1z"/>
	</g>
	<g>
		<path d="M26.2,18.5c-1.4,0.3-2.1-0.4-2.3-1.8c-0.5-2.9-2.8-4.7-6-4.7c-2.7,0-4.3,1.6-4.1,3.2c1,5.5,22.7,5.3,22.7,21.5
			c0,2.1-2.3,14.5-18.6,14.5C3.4,51.3,0.3,41.6,0,36.1c-0.1-1.3,0.6-2,1.8-2.3l7.8-1.8c1.4-0.3,2.1,0.4,2.3,1.8
			c0.3,3.4,2.8,5.3,6.1,5.3c3.4,0,5.8-2,5.4-3.9c-1.3-6-22-4.6-22-20.8C1.2,12.4,2.5,0,17.9,0c14.2,0,17.5,9.4,17.9,14.5
			c0.1,1.3-0.6,2-1.8,2.3L26.2,18.5z"/>
		<path d="M70.9,1.1c1.4,0,2.1,0.7,2.1,2.1v7.9c0,1.3-0.7,2.1-2.1,2.1H55.8c-1.3,0-2.1,0.7-2.1,2.1v2.2c0,1.3,0.8,2.1,2.1,2.1h9.1
			c1.4,0,2.1,0.7,2.1,2.1v7.9c0,1.3-0.7,2.1-2.1,2.1h-9.1c-1.3,0-2.1,0.7-2.1,2.1v14.3c0,1.3-0.7,2.1-2.1,2.1h-8.1
			c-1.3,0-2.1-0.8-2.1-2.1V3.2c0-1.4,0.8-2.1,2.1-2.1H70.9z"/>
	</g>
</g>
</svg>
