<?xml version="1.0" encoding="utf-8"?>
<!-- Generator: Adobe Illustrator 21.0.0, SVG Export Plug-In . SVG Version: 6.00 Build 0)  -->
<svg version="1.1" id="Layer_1" xmlns="http://www.w3.org/2000/svg" xmlns:xlink="http://www.w3.org/1999/xlink" x="0px" y="0px"
	 viewBox="0 0 841.9 1190.6" style="enable-background:new 0 0 841.9 1190.6;" xml:space="preserve">
<g>
	<path d="M410.5,588.5c-1.4,0.3-2.1-0.4-2.3-1.8c-0.5-2.9-2.8-4.7-6-4.7c-2.7,0-4.3,1.6-4.1,3.2c1,5.5,22.7,5.3,22.7,21.5
		c0,2.1-2.3,14.5-18.6,14.5c-14.4,0-17.5-9.7-17.9-15.2c-0.1-1.3,0.6-2,1.8-2.3l7.8-1.8c1.4-0.3,2.1,0.4,2.3,1.8
		c0.3,3.4,2.8,5.3,6.1,5.3c3.4,0,5.8-2,5.4-3.9c-1.3-6-22-4.6-22-20.8c-0.1-2.1,1.2-14.5,16.6-14.5c14.2,0,17.5,9.4,17.9,14.5
		c0.1,1.3-0.6,2-1.8,2.3L410.5,588.5z"/>
	<path d="M455.3,571.1c1.4,0,2.1,0.7,2.1,2.1v7.9c0,1.3-0.7,2.1-2.1,2.1h-15.1c-1.3,0-2.1,0.7-2.1,2.1v2.2c0,1.3,0.8,2.1,2.1,2.1
		h9.1c1.4,0,2.1,0.7,2.1,2.1v7.9c0,1.3-0.7,2.1-2.1,2.1h-9.1c-1.3,0-2.1,0.7-2.1,2.1v14.3c0,1.3-0.7,2.1-2.1,2.1h-8.1
		c-1.3,0-2.1-0.8-2.1-2.1v-44.9c0-1.4,0.8-2.1,2.1-2.1H455.3z"/>
</g>
</svg>
